<svg width="185" height="27" viewBox="0 0 185 27" version="1.1" xmlns="http://www.w3.org/2000/svg" xmlns:xlink="http://www.w3.org/1999/xlink">
<title>Logo</title>
<desc>Created using Figma</desc>
<g id="Canvas" transform="translate(7714 603)">
<g id="Logo">
<use xlink:href="#path0_fill" transform="translate(-7713.05 -602.104)" fill="#03A9F4"/>
<use xlink:href="#path1_fill" transform="translate(-7713.05 -602.104)" fill="#03A9F4"/>
<use xlink:href="#path2_fill" transform="translate(-7713.05 -602.104)" fill="#03A9F4"/>
<use xlink:href="#path3_fill" transform="translate(-7713.05 -602.104)" fill="#03A9F4"/>
<use xlink:href="#path4_fill" transform="translate(-7713.05 -602.104)" fill="#03A9F4"/>
<use xlink:href="#path5_fill" transform="translate(-7713.05 -602.104)" fill="#03A9F4"/>
<use xlink:href="#path6_fill" transform="translate(-7713.05 -602.104)" fill="#03A9F4"/>
<use xlink:href="#path7_fill" transform="translate(-7713.05 -602.104)" fill="#03A9F4"/>
<use xlink:href="#path8_fill" transform="translate(-7713.05 -602.104)" fill="#03A9F4"/>
<use xlink:href="#path9_fill" transform="translate(-7713.05 -602.104)" fill="#03A9F4"/>
<use xlink:href="#path10_fill" transform="translate(-7713.05 -602.104)" fill="#03A9F4"/>
<use xlink:href="#path11_fill" transform="translate(-7713.05 -602.104)" fill="#03A9F4"/>
</g>
</g>
<defs>
<path id="path0_fill" d="M 10.164 20.328C 13.58 20.328 16.632 18.62 18.48 16.016L 15.092 13.244C 14.084 14.868 12.292 16.016 10.164 16.016C 6.944 16.016 4.508 13.356 4.508 10.164C 4.508 6.972 6.944 4.312 10.164 4.312C 12.292 4.312 14.084 5.46 15.092 7.084L 18.48 4.312C 16.632 1.708 13.58 0 10.164 0C 4.564 0 0 4.564 0 10.164C 0 15.764 4.564 20.328 10.164 20.328Z"/>
<path id="path1_fill" d="M 20.4148 20.104L 24.6428 20.104L 24.6428 10.948C 25.3148 10.36 26.3228 10.024 27.1908 10.024C 27.9188 10.024 28.7028 10.164 29.3468 10.5L 29.3468 6.104C 28.8148 5.936 28.2828 5.88 27.8348 5.88C 26.4628 5.88 25.4268 6.384 24.6428 7.336L 24.6428 6.104L 20.4148 6.104L 20.4148 20.104Z"/>
<path id="path2_fill" d="M 33.4646 25.256L 37.9446 25.256L 45.0006 6.104L 40.5206 6.104L 37.6086 14.952L 34.6966 6.104L 30.2166 6.104L 35.3686 20.104L 33.4646 25.256Z"/>
<path id="path3_fill" d="M 46.5008 25.256L 50.7288 25.256L 50.7288 19.292C 51.5408 19.964 52.6608 20.328 53.8088 20.328C 57.9528 20.328 60.5848 16.94 60.5848 13.104C 60.5848 9.268 57.9528 5.88 53.8088 5.88C 52.6608 5.88 51.5408 6.272 50.7288 6.944L 50.7288 6.104L 46.5008 6.104L 46.5008 25.256ZM 53.1088 9.744C 55.1248 9.744 56.3288 11.256 56.3288 13.104C 56.3288 14.952 55.1248 16.464 53.1088 16.464C 52.0728 16.464 51.2888 16.072 50.7288 15.316L 50.7288 10.92C 51.2888 10.164 52.0728 9.744 53.1088 9.744Z"/>
<path id="path4_fill" d="M 62.0618 9.8L 63.8818 9.8L 63.8818 15.792C 63.8818 18.452 65.5338 20.104 68.1658 20.104L 72.0298 20.104L 72.0298 16.24L 69.7338 16.24C 68.5858 16.24 68.1098 15.764 68.1098 14.588L 68.1098 9.8L 71.6098 9.8L 72.5338 6.104L 68.1098 6.104L 68.1098 1.904L 63.8818 4.004L 63.8818 6.104L 61.1378 6.104L 62.0618 9.8Z"/>
<path id="path5_fill" d="M 81.1328 16.38C 79.3968 16.38 78.1088 15.036 78.1088 13.104C 78.1088 11.172 79.3968 9.828 81.1328 9.828C 82.8688 9.828 84.1568 11.172 84.1568 13.104C 84.1568 15.036 82.8688 16.38 81.1328 16.38ZM 81.1328 20.328C 85.1648 20.328 88.4128 17.08 88.4128 13.104C 88.4128 9.128 85.1648 5.88 81.1328 5.88C 77.1008 5.88 73.8528 9.128 73.8528 13.104C 73.8528 17.08 77.1008 20.328 81.1328 20.328Z"/>
<path id="path6_fill" d="M 108.435 20.104L 112.663 20.104L 112.663 12.292C 112.663 8.792 110.955 5.88 106.783 5.88C 104.627 5.88 103.115 6.776 102.303 7.588C 101.323 6.524 99.979 5.88 98.327 5.88C 97.151 5.88 95.947 6.3 95.135 6.944L 95.135 6.104L 90.907 6.104L 90.907 20.104L 95.135 20.104L 95.135 10.892C 95.695 10.192 96.535 9.772 97.459 9.772C 99.139 9.772 99.671 11.228 99.671 13.048L 99.671 20.104L 103.899 20.104L 103.899 12.292C 103.899 11.844 103.843 11.424 103.787 11.004C 104.347 10.248 105.271 9.772 106.223 9.772C 107.903 9.772 108.435 11.228 108.435 13.048L 108.435 20.104Z"/>
<path id="path7_fill" d="M 124.917 20.104L 129.145 20.104L 129.145 6.104L 124.917 6.104L 124.917 6.944C 124.105 6.272 122.985 5.88 121.837 5.88C 117.693 5.88 115.061 9.268 115.061 13.104C 115.061 16.94 117.693 20.328 121.837 20.328C 122.985 20.328 124.105 19.964 124.917 19.292L 124.917 20.104ZM 122.537 16.464C 120.521 16.464 119.317 14.952 119.317 13.104C 119.317 11.256 120.521 9.744 122.537 9.744C 123.573 9.744 124.329 10.164 124.917 10.92L 124.917 15.316C 124.329 16.072 123.573 16.464 122.537 16.464Z"/>
<path id="path8_fill" d="M 132.442 20.104L 136.67 20.104L 136.67 10.948C 137.342 10.36 138.35 10.024 139.218 10.024C 139.946 10.024 140.73 10.164 141.374 10.5L 141.374 6.104C 140.842 5.936 140.31 5.88 139.862 5.88C 138.49 5.88 137.454 6.384 136.67 7.336L 136.67 6.104L 132.442 6.104L 132.442 20.104Z"/>
<path id="path9_fill" d="M 143.407 20.104L 147.635 20.104L 147.635 13.132L 152.815 20.104L 157.799 20.104L 152.311 12.74L 157.071 6.104L 152.199 6.104L 147.635 12.488L 147.635 0.224L 143.407 0.224L 143.407 20.104Z"/>
<path id="path10_fill" d="M 164.555 20.328C 167.327 20.328 169.595 18.984 170.883 16.968L 167.523 14.7C 166.963 15.736 166.011 16.464 164.527 16.464C 163.267 16.464 161.671 15.736 161.475 13.86L 171.303 13.86C 171.359 13.44 171.387 13.02 171.387 12.628C 171.387 8.204 168.195 5.88 164.639 5.88C 160.327 5.88 157.415 8.988 157.415 13.104C 157.415 17.416 160.859 20.328 164.555 20.328ZM 164.387 9.268C 165.759 9.268 166.991 9.912 167.215 11.396L 161.503 11.396C 161.895 9.716 163.379 9.268 164.387 9.268Z"/>
<path id="path11_fill" d="M 172.777 9.8L 174.597 9.8L 174.597 15.792C 174.597 18.452 176.249 20.104 178.881 20.104L 182.745 20.104L 182.745 16.24L 180.449 16.24C 179.301 16.24 178.825 15.764 178.825 14.588L 178.825 9.8L 182.325 9.8L 183.249 6.104L 178.825 6.104L 178.825 1.904L 174.597 4.004L 174.597 6.104L 171.853 6.104L 172.777 9.8Z"/>
</defs>
</svg>
