<svg width="15" height="15" viewBox="0 0 15 15" version="1.1" xmlns="http://www.w3.org/2000/svg" xmlns:xlink="http://www.w3.org/1999/xlink">
<title>Vector</title>
<desc>Created using Figma</desc>
<g id="Canvas" transform="translate(6783 -437)">
<g id="Vector">
<use xlink:href="#path0_fill" transform="translate(-6783 437)" fill="#03A9F4"/>
</g>
</g>
<defs>
<path id="path0_fill" d="M 4.5 12C 3.675 12 3 12.675 3 13.5C 3 14.325 3.675 15 4.5 15C 5.325 15 6 14.325 6 13.5C 6 12.675 5.325 12 4.5 12ZM 0 0L 0 1.5L 1.5 1.5L 4.2 7.2L 3.15 9C 3.075 9.225 3 9.525 3 9.75C 3 10.575 3.675 11.25 4.5 11.25L 13.5 11.25L 13.5 9.75L 4.8 9.75C 4.725 9.75 4.65 9.675 4.65 9.6L 4.65 9.52497L 5.325 8.24997L 10.875 8.24997C 11.475 8.24997 11.925 7.94997 12.15 7.49997L 14.85 2.625C 15 2.475 15 2.4 15 2.25C 15 1.8 14.7 1.5 14.25 1.5L 3.15 1.5L 2.475 0L 0 0ZM 12 12C 11.175 12 10.5 12.675 10.5 13.5C 10.5 14.325 11.175 15 12 15C 12.825 15 13.5 14.325 13.5 13.5C 13.5 12.675 12.825 12 12 12Z"/>
</defs>
</svg>
