<svg width="16" height="28" viewBox="0 0 16 28" version="1.1" xmlns="http://www.w3.org/2000/svg" xmlns:xlink="http://www.w3.org/1999/xlink">
<title>Group 2</title>
<desc>Created using Figma</desc>
<g id="Canvas" transform="translate(7371 113)">
<g id="Group 2">
<g id="Vector">
<use xlink:href="#path0_fill" transform="translate(-7367.31 -113)" fill="#03A9F4"/>
</g>
<g id="Vector">
<use xlink:href="#path0_fill" transform="matrix(-1 1.23902e-16 -1.21044e-16 -1 -7358.69 -85)" fill="#00E082"/>
</g>
</g>
</g>
<defs>
<path id="path0_fill" d="M 12.0542 6.04785L 6.51636 0.264636C 6.17848 -0.0882121 5.6305 -0.0882121 5.29262 0.264636C 4.95467 0.617557 4.95467 1.18966 5.29262 1.54258L 9.35334 5.7832L 0.865291 5.7832C 0.387442 5.7832 -2.09851e-06 6.18781 -2.09851e-06 6.68683C -2.09851e-06 7.18577 0.387442 7.59045 0.865291 7.59045L 9.35334 7.59045L 5.29276 11.8311C 4.95481 12.184 4.95481 12.7561 5.29276 13.109C 5.46167 13.2853 5.68318 13.3737 5.90463 13.3737C 6.12607 13.3737 6.34752 13.2853 6.51649 13.109L 12.0542 7.3258C 12.3922 6.97288 12.3922 6.40077 12.0542 6.04785Z"/>
</defs>
</svg>
