<svg width="12" height="20" viewBox="0 0 12 20" version="1.1" xmlns="http://www.w3.org/2000/svg" xmlns:xlink="http://www.w3.org/1999/xlink">
<title>next</title>
<desc>Created using Figma</desc>
<g id="Canvas" transform="translate(6556 494)">
<g id="next">
<use xlink:href="#path0_fill" transform="matrix(-1 1.22465e-16 -1.22465e-16 -1 -6544 -474)" fill="#fff"/>
</g>
</g>
<defs>
<path id="path0_fill" d="M 3.69042 10.0001L 11.7939 2.12428C 11.9312 1.99071 12 1.83699 12 1.66333C 12 1.48968 11.9313 1.33596 11.7939 1.20266L 10.7628 0.200538C 10.6253 0.0670331 10.4672 0 10.289 0C 10.1102 0 9.95214 0.0670331 9.81471 0.200538L 0.20597 9.53905C 0.0685365 9.67263 3.52634e-08 9.82635 3.52634e-08 10C 3.52634e-08 10.1737 0.0685365 10.3274 0.20597 10.4609L 9.8142 19.7995C 9.95185 19.9332 10.1101 20 10.2888 20C 10.4672 20 10.6253 19.9332 10.7627 19.7995L 11.7938 18.798C 11.9312 18.6645 11.9997 18.5107 11.9997 18.3369C 11.9997 18.1634 11.9312 18.0097 11.7938 17.8761L 3.69042 10.0001Z"/>
</defs>
</svg>
